<?xml version="1.0" encoding="UTF-8"?>
<svg width="128px" height="58px" viewBox="0 0 128 58" version="1.1" xmlns="http://www.w3.org/2000/svg" xmlns:xlink="http://www.w3.org/1999/xlink">
    <title>Pera</title>
    <g id="Page-1" stroke="none" stroke-width="1" fill="none" fill-rule="evenodd">
        <g id="Pera" transform="translate(-0.000000, 0.000000)" fill="#1C1C1C" fill-rule="nonzero">
            <path d="M1.86258819,24.0671875 C2.61258819,24.2171875 3.26258819,24.0671875 3.76258819,23.7171875 C4.26258819,23.3671875 4.51258819,22.8671875 4.46258819,22.2171875 C4.46258819,21.8171875 4.61258819,21.5171875 4.96258819,21.2671875 C5.36258819,21.0171875 5.81258819,20.8171875 6.31258819,20.6671875 C6.51258819,20.5671875 6.71258819,20.4671875 6.91258819,20.4171875 C12.0625882,18.3171875 18.0625882,16.6671875 24.9125882,15.4171875 C31.7125882,14.1671875 37.8625882,13.3671875 43.3625882,12.9671875 C39.1125882,19.5671875 35.2625882,26.2171875 31.8625882,32.9171875 C31.1125882,32.9671875 30.1625882,33.0671875 29.0125882,33.0671875 C27.8625882,33.1171875 26.9125882,33.0171875 26.1625882,32.7171875 C25.4625882,32.4671875 25.3625882,31.9671875 25.8625882,31.1671875 C26.2625882,30.5671875 26.3125882,30.0671875 26.0125882,29.6171875 C25.7625882,29.1671875 25.3125882,28.8671875 24.7125882,28.7671875 C24.1125882,28.6671875 23.5125882,28.8671875 22.9125882,29.3171875 C22.1625882,29.9171875 21.6125882,30.6171875 21.2125882,31.4671875 C20.8625882,32.2671875 20.9125882,33.0671875 21.4625882,33.8171875 C22.3125882,34.8171875 23.4125882,35.4671875 24.8125882,35.7671875 C26.1625882,36.0171875 27.6125882,36.2171875 29.1125882,36.2171875 C29.4125882,36.2671875 29.7625882,36.2671875 30.1125882,36.2671875 L22.3625882,52.6171875 C21.8625882,53.4671875 21.5125882,54.4171875 21.3125882,55.3671875 C21.1125882,56.3171875 21.5125882,57.0171875 22.4625882,57.4171875 C23.3625882,57.7171875 24.1625882,57.5671875 24.8125882,56.9671875 C25.5125882,56.4171875 26.0625882,55.7671875 26.5125882,55.0671875 L26.6625882,54.9171875 C26.9125882,54.5171875 27.0125882,54.2171875 26.9625882,54.0171875 C26.9625882,53.7671875 26.8625882,53.5671875 26.7125882,53.4171875 C26.6125882,53.2671875 26.5125882,53.1171875 26.4625882,52.9171875 C26.4125882,52.7171875 26.4625882,52.5171875 26.5625882,52.2671875 C29.1125882,47.0171875 31.6125882,41.7671875 34.1625882,36.5171875 C34.3125882,36.1671875 34.6125882,35.9171875 35.1125882,35.9171875 C40.7625882,35.2171875 46.4125882,33.8171875 52.0625882,31.6671875 C57.7125882,29.5671875 62.8625882,27.0671875 67.5125882,24.2671875 C69.1125882,23.3171875 70.6125882,22.1671875 72.1125882,20.7671875 C73.5625882,19.4171875 74.4125882,17.9671875 74.7125882,16.4171875 C75.0125882,14.9171875 74.2625882,13.5171875 72.3625882,12.2671875 C69.8625882,10.8171875 66.6125882,9.9171875 62.6625882,9.6171875 C58.7125882,9.3171875 55.0125882,9.2171875 51.6125882,9.2671875 L50.4125882,9.2671875 C50.4625882,9.1671875 50.5125882,9.1171875 50.5625882,9.0671875 C50.5625882,8.9671875 50.6125882,8.9171875 50.6625882,8.8171875 C50.9625882,8.5171875 51.2625882,8.1171875 51.6625882,7.6171875 C52.6125882,6.3671875 54.6125882,3.7171875 56.0125882,2.9671875 C56.7625882,2.5171875 57.0625882,2.0171875 56.8625882,1.4171875 C56.7125882,0.8171875 56.3125882,0.3671875 55.6125882,0.1171875 C54.9125882,-0.1328125 54.1625882,0.0171875 53.3625882,0.5671875 C50.2125882,3.1171875 47.8625882,6.5171875 46.3125882,8.7171875 L46.1125882,9.0171875 C45.9625882,9.1671875 45.8625882,9.3171875 45.7125882,9.4171875 C45.5625882,9.5171875 45.3625882,9.5671875 45.1125882,9.5671875 C44.5125882,9.6171875 43.9125882,9.6671875 43.3125882,9.7671875 C40.1625882,10.0171875 37.0625882,10.3671875 33.9625882,10.7171875 C29.1625882,11.2671875 23.5125882,12.3171875 17.1125882,13.7671875 C10.6625882,15.2671875 5.41258819,17.2171875 1.36258819,19.7171875 C0.412588191,20.4171875 -0.0874118091,21.2671875 0.0125881909,22.1671875 C0.0625881909,23.1171875 0.712588191,23.7171875 1.86258819,24.0671875 Z M36.3625882,32.4671875 C36.8125882,31.3171875 37.7625882,29.4671875 39.2125882,26.9171875 C40.7125882,24.3171875 42.2125882,21.7671875 43.8125882,19.1171875 C45.4125882,16.5171875 46.6125882,14.6171875 47.4125882,13.3671875 C47.7625882,12.8171875 48.2625882,12.5671875 49.0125882,12.5671875 C51.2625882,12.4671875 54.1125882,12.4671875 57.5125882,12.5671875 C60.8625882,12.6171875 63.9125882,12.9671875 66.5625882,13.5171875 C69.2125882,14.0671875 70.5625882,15.0671875 70.6125882,16.4671875 C70.6625882,17.8671875 68.5125882,19.8171875 64.1125882,22.4171875 C60.3625882,24.6171875 55.9125882,26.6671875 50.8125882,28.6671875 C45.7125882,30.6171875 40.8625882,31.9171875 36.3625882,32.4671875 Z" id="Shape"></path>
            <path d="M58.0125882,43.3671875 C59.9125882,43.6671875 62.5625882,43.2171875 65.9625882,41.9671875 C69.4125882,40.6671875 72.8125882,39.1671875 76.1625882,37.4171875 C79.5625882,35.6171875 82.1625882,34.1671875 83.9125882,32.9671875 C84.8625882,32.2671875 85.3625882,31.6171875 85.4125882,30.9671875 C85.4125882,30.3671875 85.1625882,29.8671875 84.6625882,29.6171875 C84.1625882,29.3171875 83.5625882,29.3171875 82.8625882,29.6671875 C79.9125882,31.7671875 76.0125882,33.9171875 71.2125882,36.1671875 C66.3625882,38.4171875 62.7125882,39.7171875 60.1625882,40.0671875 C59.7125882,40.0671875 59.5125882,39.9171875 59.5625882,39.5671875 C59.6125882,39.1671875 59.7625882,38.7171875 60.1125882,38.2171875 C60.4125882,37.6671875 60.8125882,37.1671875 61.2625882,36.6671875 C61.6625882,36.2171875 62.1125882,35.8671875 62.5125882,35.6171875 C63.1625882,35.3671875 63.8625882,35.0171875 64.6125882,34.7171875 C66.2625882,34.0671875 67.8625882,33.2671875 69.5125882,32.2671875 C71.1625882,31.3171875 72.3625882,30.1171875 73.1625882,28.6171875 C73.7625882,27.0671875 73.4125882,26.0171875 72.0625882,25.4671875 C70.7125882,24.9671875 68.6125882,25.6171875 65.7625882,27.5671875 C62.5625882,29.9171875 59.8125882,32.7671875 57.6125882,36.0171875 C56.6625882,37.4171875 56.0625882,38.8171875 55.9125882,40.3671875 C55.7125882,41.8671875 56.4125882,42.8671875 58.0125882,43.3671875 Z" id="Path"></path>
            <path d="M81.2125882,44.7671875 C82.3125882,42.8671875 83.8625882,40.5671875 85.7625882,37.9171875 C87.6625882,35.2171875 89.3125882,33.2671875 90.6625882,31.9671875 C90.8125882,31.8671875 90.9125882,31.8671875 90.9625882,31.9671875 L90.9625882,32.6671875 C90.8625882,33.1171875 90.8625882,33.6171875 90.9125882,34.2171875 C90.9625882,34.7671875 91.1625882,35.2171875 91.5625882,35.6171875 C92.2125882,36.1171875 93.4125882,36.1671875 95.2125882,35.8171875 C96.9625882,35.5171875 98.8125882,34.8671875 100.662588,33.9171875 C101.362588,33.5171875 101.762588,33.0171875 101.862588,32.4671875 C101.962588,31.9171875 101.862588,31.4671875 101.562588,31.0671875 C101.312588,30.7171875 100.962588,30.6671875 100.512588,30.9171875 C99.3625882,31.6171875 98.1625882,32.1671875 96.9125882,32.5171875 C95.7125882,32.9171875 94.8125882,32.9671875 94.3125882,32.6171875 C94.1125882,32.4671875 94.0125882,32.1671875 94.0125882,31.8171875 C93.9625882,31.4171875 94.0125882,31.0171875 94.0625882,30.5671875 C94.1125882,29.9671875 94.1125882,29.4171875 94.0625882,28.9171875 C93.9125882,28.0671875 93.4625882,27.5171875 92.7125882,27.2671875 C91.9625882,27.0171875 91.2125882,27.1671875 90.4625882,27.7671875 C89.6125882,28.5171875 88.7125882,29.5171875 87.6625882,30.7671875 C86.6625882,32.0671875 85.6625882,33.3171875 84.7125882,34.5671875 C84.2625882,35.1671875 83.8625882,35.7171875 83.4625882,36.2171875 C83.5125882,35.9171875 83.8125882,35.2171875 84.3625882,34.1171875 C84.9125882,33.0171875 85.5125882,31.9171875 86.1125882,30.7671875 C86.7625882,29.6671875 87.2125882,28.9171875 87.5625882,28.5671875 C88.2625882,27.9171875 88.5625882,27.3171875 88.4625882,26.7671875 C88.3625882,26.1671875 88.1125882,25.7671875 87.6625882,25.4171875 C87.2625882,25.1671875 86.8625882,25.0671875 86.4125882,25.2171875 C85.9125882,25.3671875 85.4125882,25.8671875 84.9125882,26.7171875 C82.9125882,30.1671875 81.3625882,33.1171875 80.2625882,35.5671875 C79.1625882,37.9671875 78.1625882,40.3671875 77.3125882,42.7171875 C77.0125882,43.6671875 77.1125882,44.4171875 77.6125882,44.9671875 C78.0625882,45.4671875 78.7125882,45.7671875 79.4125882,45.7671875 C80.1625882,45.7671875 80.7625882,45.4171875 81.2125882,44.7671875 Z" id="Path"></path>
            <path d="M107.412588,43.3671875 C109.812588,43.6671875 112.912588,42.7171875 116.712588,40.4171875 C120.512588,38.1171875 123.712588,35.7171875 126.212588,33.1171875 C126.912588,32.3671875 127.212588,31.7171875 127.162588,31.2171875 C127.062588,30.6671875 126.762588,30.3671875 126.312588,30.2671875 C125.812588,30.1671875 125.312588,30.3171875 124.812588,30.8171875 C123.612588,32.0671875 122.062588,33.4171875 120.112588,34.8171875 C118.162588,36.2671875 116.262588,37.4671875 114.362588,38.4671875 C112.512588,39.4671875 111.012588,39.9171875 109.962588,39.8671875 C109.162588,39.7171875 108.912588,39.1171875 109.112588,38.0671875 C109.362588,36.9671875 109.812588,35.7671875 110.512588,34.3671875 C111.212588,33.0171875 111.862588,31.7671875 112.512588,30.6671875 C112.912588,30.0171875 113.162588,29.5171875 113.362588,29.1671875 C113.562588,28.7171875 113.512588,28.2671875 113.212588,27.8171875 C112.912588,27.3171875 112.512588,26.9171875 112.062588,26.6171875 C111.562588,26.3171875 111.112588,26.2171875 110.762588,26.2671875 C110.362588,26.4171875 110.062588,26.6171875 109.812588,26.8671875 L109.212588,27.2671875 C109.012588,27.3671875 108.812588,27.3671875 108.612588,27.2671875 C107.312588,26.7171875 105.612588,27.1671875 103.562588,28.5171875 C101.512588,29.8671875 99.5125882,31.5671875 97.6125882,33.6171875 C95.7625882,35.6171875 94.4125882,37.3671875 93.6625882,38.8171875 C92.9625882,40.3671875 92.9125882,41.5171875 93.5625882,42.2671875 C93.9125882,42.8171875 94.4625882,43.1171875 95.2125882,43.1671875 C95.9625882,43.2171875 97.0625882,42.7671875 98.4625882,41.7671875 C100.062588,40.5671875 101.612588,39.2171875 103.112588,37.7171875 C104.562588,36.2171875 105.762588,34.9171875 106.662588,33.9171875 C107.012588,33.4671875 107.312588,33.1671875 107.512588,32.9671875 C106.862588,34.0171875 106.262588,35.3171875 105.762588,36.7671875 C105.212588,38.2671875 105.012588,39.6171875 105.112588,40.8671875 C105.262588,42.1171875 106.012588,42.9171875 107.412588,43.3671875 Z" id="Path"></path>
        </g>
    </g>
</svg>