<?xml version="1.0" encoding="UTF-8"?>
<svg width="100px" height="100px" viewBox="0 0 100 100" version="1.1" xmlns="http://www.w3.org/2000/svg" xmlns:xlink="http://www.w3.org/1999/xlink">
    <title>Avatar_male</title>
    <defs>
        <circle id="path-1" cx="50" cy="50" r="50"></circle>
    </defs>
    <g id="Page-1" stroke="none" stroke-width="1" fill="none" fill-rule="evenodd">
        <g id="Avatar_male">
            <mask id="mask-2" fill="white">
                <use xlink:href="#path-1"></use>
            </mask>
            <use id="Oval" fill="#F0F0F0" xlink:href="#path-1"></use>
            <g id="XMLID_1018_" mask="url(#mask-2)">
                <g transform="translate(17.000000, 67.000000)">
                    <g id="XMLID_1074_" stroke-width="1" fill="none" fill-rule="evenodd" transform="translate(0.000000, 0.000270)">
                        <path d="M65,22.001532 L65,32.9997296 L0,32.9997296 L0,22.001532 C0,13.7744443 4.7069965,6.6014599 10.9988832,2.83004678 C12.6357813,1.84569444 16.3324137,1.09168216 18.2702542,0.614240187 C19.8827736,0.211956121 21.5895576,0 23.3740827,0 L32.7452774,6.48899339 L41.8713302,0 C43.6558553,0 45.9298517,0.211956121 47.542642,0.614240187 C49.4804824,1.09168216 52.3647604,1.84542408 54.0013877,2.83004678 C60.2930035,6.6014599 65,13.7744443 65,22.001532 Z" id="XMLID_1075_" fill="#F3D8B6" fill-rule="nonzero"></path>
                    </g>
                    <path d="M54.0011168,2.83004678 C52.3644895,1.84569444 49.4802115,1.09195252 47.5423711,0.614240187 C45.9298517,0.211956121 43.6558553,0 41.8710593,0 L32.7450065,6.48872304 L32.4995937,6.31894186 L32.4995937,32.9994593 L64.9997291,32.9994593 L64.9997291,22.0012616 C64.9997291,13.7747147 60.2930035,6.60173025 54.0011168,2.83004678 Z" id="XMLID_1076_" fill="#EEC8A2" fill-rule="nonzero"></path>
                </g>
            </g>
            <g id="XMLID_1077_" mask="url(#mask-2)">
                <g transform="translate(27.000000, 52.000000)">
                    <g id="XMLID_1078_" stroke-width="1" fill="none" fill-rule="evenodd">
                        <path d="M45,22.1143428 C39.9511654,20.298747 31.0822344,18.925025 31.0822344,0 L23.1764416,0 L21.8235584,0 L13.9177656,0 C13.9177656,18.925025 5.04883458,20.298747 0,22.1143428 C0,34.9868382 18.6168844,35.3825137 21.8235584,36.5823124 L21.8235584,37 C21.8235584,37 22.0729303,36.94891 22.5,36.8152065 C22.9270697,36.94891 23.1764416,37 23.1764416,37 L23.1764416,36.5823124 C26.3831156,35.3827854 45,34.9868382 45,22.1143428 Z" id="XMLID_1079_" fill="#F3D8B6" fill-rule="nonzero"></path>
                    </g>
                    <path d="M31.0822344,0 L23.1764416,0 L22.5,0 L22.5,36.8152065 C22.9270697,36.94891 23.1764416,37 23.1764416,37 L23.1764416,36.5823124 C26.3831156,35.3827854 45,34.9868382 45,22.1146145 C39.9511654,20.298747 31.0822344,18.9252967 31.0822344,0 Z" id="XMLID_1080_" fill="#EEC8A2" fill-rule="nonzero"></path>
                </g>
            </g>
            <g id="XMLID_1081_" mask="url(#mask-2)" fill-rule="nonzero">
                <g transform="translate(17.000000, 68.000000)">
                    <path d="M12.0804341,25.2969463 L12.0804341,32 L51.6596019,32 L51.6596019,25.2969463 L65,25.2969463 L65,20.9943526 C65,12.7616922 60.3106888,5.58384904 54.0424423,1.80961077 C52.9821728,1.16898313 51.0553913,0.51293497 49.3059061,0 C47.1276176,6.59889757 40.4292185,11.4054986 32.5,11.4054986 C24.5707815,11.4054986 17.8723824,6.59862703 15.6940939,0 C13.9443388,0.51293497 12.0178272,1.16898313 10.9575577,1.80961077 C4.68931116,5.58384904 0,12.7614217 0,20.9943526 L0,25.2969463 L12.0804341,25.2969463 Z" id="XMLID_1082_" fill="#D7734A"></path>
                    <path d="M54.0421725,1.80961077 C52.981903,1.16898313 51.0551215,0.51293497 49.3056363,0 C47.1273478,6.59889757 40.4289486,11.4054986 32.4997301,11.4054986 L32.4997301,31.9997295 L51.6596019,31.9997295 L51.6596019,25.2966758 L65,25.2966758 L65,20.994082 C65,12.7616922 60.310419,5.58384904 54.0421725,1.80961077 Z" id="XMLID_1083_" fill="#D35D3B"></path>
                </g>
            </g>
            <path d="M63.1830264,95 L60.816712,95 C58.708874,95 57,93.2631252 57,91.1207493 L57,86 L67,86 L67,91.1207493 C66.9997384,93.2631252 65.2908644,95 63.1830264,95 Z" id="XMLID_42_" fill="#FFE477" fill-rule="nonzero" mask="url(#mask-2)"></path>
            <g id="XMLID_1084_" mask="url(#mask-2)">
                <g transform="translate(32.000000, 15.000000)">
                    <g id="XMLID_1085_" stroke-width="1" fill="none" fill-rule="evenodd">
                        <path d="M18.0004423,43.9997323 C10.5969733,43.9997323 4.94607756,37.8105217 2.41389378,33.1692161 C-0.118289997,28.5279105 -1.87059353,11.9009157 3.58425349,4.55171336 C8.92583989,-2.64516144 18.0004423,0.847128552 18.0004423,0.847128552 C18.0004423,0.847128552 27.0745053,-2.64516144 32.4163614,4.55171336 C37.8706691,11.9009157 36.1178262,28.5279105 33.5853728,33.1692161 C31.0526496,37.8105217 25.4025629,43.9997323 18.0004423,43.9997323 Z" id="XMLID_1086_" fill="#F3DBC4" fill-rule="nonzero"></path>
                    </g>
                    <path d="M32.4163614,4.55171336 C27.0742357,-2.64516144 18.0004423,0.847128552 18.0004423,0.847128552 L17.9999029,0.847128552 L17.9999029,44 C18.0001726,44 18.0001726,44 18.0004423,44 C25.4025629,44 31.0526496,37.8107894 33.5856424,33.1694838 C36.1178262,28.5281782 37.8709387,11.9011834 32.4163614,4.55171336 Z" id="XMLID_1087_" fill="#EDCEAE" fill-rule="nonzero"></path>
                </g>
            </g>
            <g id="XMLID_1088_" mask="url(#mask-2)">
                <g transform="translate(31.000000, 11.000000)">
                    <g id="XMLID_1089_" stroke-width="1" fill="none" fill-rule="evenodd">
                        <path d="M34.0537006,6.95936493 C33.4692367,6.98135226 30.7288347,-1.64400142 23.4196522,0.279889722 C18.4014924,1.60077841 17.7680299,2.31893949 15.807274,2.88071571 C7.84567926,0.403293597 0.230864639,6.85822323 0.513486363,12.9091357 C0.989666067,23.0975135 -0.779968231,22.942228 0.433626776,26.5011518 C1.64722178,30.0600756 2.72546156,32.9343689 2.72546156,32.9343689 C2.72546156,32.9343689 2.99508918,33.9141792 3.53434442,28.3021888 C4.07359967,22.6901983 2.26065169,19.6779344 6.54924685,19.6779344 C20.7485521,19.6779344 1.21679215,25.2770074 10.3261992,25.2770074 C19.3654923,25.2770074 26.3530708,17.7515697 30.6078271,17.2043601 C34.8623128,16.6568757 33.0834743,22.6901983 33.6227296,28.3021888 C34.1619848,33.9141792 34.4316124,32.9343689 34.4316124,32.9343689 C34.4316124,32.9343689 36.8463498,30.2651074 36.7234472,26.5011518 C36.5853849,22.2537498 38.4478729,6.79391029 34.0537006,6.95936493 Z" id="XMLID_1090_" fill="#682234" fill-rule="nonzero"></path>
                    </g>
                    <path d="M34.0537006,6.95963977 C33.4692367,6.9816271 30.7288347,-1.64372658 23.4196522,0.280164564 C20.9369666,0.933737869 19.5281893,1.4394464 18.500031,1.85198363 L18.500031,23.37263 C23.6362206,21.1043623 27.7426276,17.5729227 30.6078271,17.2043601 C34.8625835,16.6568757 33.0834743,22.6901983 33.6227296,28.3021888 C34.1619848,33.9141792 34.4316124,32.9343689 34.4316124,32.9343689 C34.4316124,32.9343689 36.8463498,30.2651074 36.7234472,26.5011518 C36.5853849,22.2537498 38.4478729,6.79391029 34.0537006,6.95963977 Z" id="XMLID_1091_" fill="#581A2B" fill-rule="nonzero"></path>
                </g>
            </g>
            <g id="XMLID_1092_" mask="url(#mask-2)" fill-rule="nonzero">
                <g transform="translate(28.936104, 35.049638)">
                    <ellipse id="XMLID_33_" fill="#F3DBC4" transform="translate(4.251375, 5.450191) rotate(69.248805) translate(-4.251375, -5.450191) " cx="4.25137497" cy="5.45019059" rx="4.79394212" ry="2.72992707"></ellipse>
                    <ellipse id="XMLID_32_" fill="#EDCEAE" transform="translate(37.876417, 5.450534) rotate(-69.248805) translate(-37.876417, -5.450534) " cx="37.8764171" cy="5.45053405" rx="4.79394212" ry="2.72992707"></ellipse>
                </g>
            </g>
        </g>
    </g>
</svg>