<?xml version="1.0" encoding="UTF-8"?>
<svg width="100px" height="100px" viewBox="0 0 100 100" version="1.1" xmlns="http://www.w3.org/2000/svg" xmlns:xlink="http://www.w3.org/1999/xlink">
    <title>Avatar_female</title>
    <defs>
        <circle id="path-1" cx="50" cy="50" r="50"></circle>
    </defs>
    <g id="Page-1" stroke="none" stroke-width="1" fill="none" fill-rule="evenodd">
        <g id="Avatar_female">
            <mask id="mask-2" fill="white">
                <use xlink:href="#path-1"></use>
            </mask>
            <use id="Oval" fill="#F0F0F0" xlink:href="#path-1"></use>
            <g id="XMLID_45_" mask="url(#mask-2)" fill-rule="nonzero">
                <g transform="translate(20.000000, 70.000000)">
                    <path d="M58,20.0009831 L58,29.9990169 L0,29.9990169 L0,20.0009831 C0,16.3856665 0.8329629,12.9940031 2.34270816,10.0693079 C3.95657377,6.94062131 6.346384,4.3452615 9.3212515,2.57324027 C9.50718071,2.46264255 9.69558899,2.35450256 9.88647632,2.24636256 C10.1740468,2.08906803 10.4690545,1.93668895 10.7690203,1.79659851 C10.9673448,1.70320488 11.1656693,1.61226897 11.368952,1.52133307 C11.368952,1.52133307 11.368952,1.52133307 11.371431,1.52133307 C11.8796375,1.30259536 12.4002394,1.10597719 12.9357155,0.929020842 C13.3621132,0.788930397 13.795948,0.666044042 14.23722,0.55790405 C14.2396991,0.55790405 14.2396991,0.55790405 14.2421782,0.55790405 C14.6090785,0.466968148 14.9809369,0.388320881 15.3602325,0.317046795 C16.4981193,0.108139992 17.6831082,0 18.907762,0 C18.9102411,0 18.9102411,0 18.9127201,0 L29,5.89854503 L39.0872799,0 C40.7209779,0 42.2827834,0.19416044 43.7578218,0.55790405 C45.5328261,0.992921746 47.1789195,1.67862761 48.6787485,2.57324027 C54.4351171,6.00176956 58,12.5221195 58,20.0009831 Z" id="XMLID_802_" fill="#F3D8B6"></path>
                    <path d="M57.9997521,20.0019662 L57.9997521,30 L28.9997521,30 L28.9997521,5.89952812 L37.9243546,0.681773496 L39.087032,0.000983090838 C40.72073,0.000983090838 42.2825355,0.192685804 43.7575739,0.558887141 C45.5325782,0.993904837 47.1786716,1.67715297 48.6785006,2.57422336 C54.4348692,6.00275265 57.9997521,12.5231026 57.9997521,20.0019662 Z" id="XMLID_803_" fill="#EEC8A2"></path>
                </g>
            </g>
            <g id="XMLID_42_" mask="url(#mask-2)" fill-rule="nonzero">
                <g transform="translate(29.000000, 69.000000)">
                    <path d="M40.1999446,31 L40.1999446,2.05245939 C38.6918066,1.14067259 42.2738527,0.442245397 40.4884449,0 L35.2475219,17.8648609 L10.5240915,17.8648609 L0.541381039,0 C-1.24402673,0.442245397 2.08820203,1.14042216 0.580313609,2.05245939 L0.580313609,31 L40.1999446,31 L40.1999446,31 Z" id="XMLID_804_" fill="#682234"></path>
                    <path d="M40.2388772,0.000250422082 L30.2561667,17.8651114 L20.3900043,17.8651114 L20.3900043,31 L40.1999446,31 L40.1999446,2.05245939 C38.6918066,1.14067259 42.0240354,0.44249582 40.2388772,0.000250422082 Z" id="XMLID_805_" fill="#521627"></path>
                </g>
            </g>
            <g id="XMLID_37_" mask="url(#mask-2)" fill-rule="nonzero">
                <g transform="translate(21.000000, 11.000000)">
                    <path d="M55.9167317,34.8406111 C55.9167317,14.7472494 45.3242023,0 28.4999571,0 C11.6757119,0 1.0831826,14.7472494 1.0831826,34.8406111 C1.0831826,40.043187 -2.40586463,45.4134685 3.13993629,51.0940056 C2.30385352,52.2755909 1.81147165,53.7153936 1.81147165,55.2703706 C1.81147165,59.2824827 5.0794798,62.5349866 9.11071704,62.5349866 C9.975297,62.5349866 10.8039457,62.3845448 11.5736176,62.11005 C16.4206179,68.8449133 22.4600397,71.3831883 28.5002049,71.3831883 C34.5403701,71.3831883 40.579792,68.8449133 45.4267922,62.1098034 C46.1962164,62.3842981 47.0253607,62.5349866 47.8896928,62.5349866 C51.9209301,62.5349866 55.1889382,59.2824827 55.1889382,55.2703706 C55.1889382,53.7153936 54.6963085,52.2755909 53.8604736,51.0940056 C59.4057789,45.4134685 55.9167317,40.043187 55.9167317,34.8406111 Z" id="XMLID_806_" fill="#C64832"></path>
                    <path d="M55.9167317,34.8406111 C55.9167317,14.7968213 45.3757451,0.0742344317 28.623858,0.00172638213 L28.623858,72 C34.6226403,71.9008563 40.6125018,68.7987943 45.4265444,62.11005 C46.1959685,62.3845448 47.0251129,62.5352333 47.889445,62.5352333 C51.9206823,62.5352333 55.1886904,59.2827293 55.1886904,55.2706173 C55.1886904,53.7156402 54.6960607,52.2758375 53.8602258,51.0942522 C59.4057789,45.4134685 55.9167317,40.043187 55.9167317,34.8406111 Z" id="XMLID_809_" fill="#B2332D"></path>
                </g>
            </g>
            <g id="XMLID_34_" mask="url(#mask-2)" fill-rule="nonzero">
                <g transform="translate(39.000000, 56.000000)">
                    <path d="M18.5124221,29 C19.9577554,27.185343 21,24.3869922 21,19.9176591 C21,19.9176591 17.4850078,15.4098985 17.4850078,0 L11.1080368,0 L9.89196323,0 L3.51499224,0 C3.51499224,15.4098985 0,19.9176591 0,19.9176591 C0,24.3869922 1.04224455,27.185343 2.48757786,29 L18.5124221,29 L18.5124221,29 Z" id="XMLID_810_" fill="#F3D8B6"></path>
                    <path d="M18.5124221,29 C19.9577554,27.185343 21,24.3869922 21,19.9176591 C21,19.9176591 17.4850078,15.4098985 17.4850078,0 L11.1080368,0 L10.6215587,0 L10.6215587,29 L18.5124221,29 Z" id="XMLID_811_" fill="#EEC8A2"></path>
                </g>
            </g>
            <g id="XMLID_22_" mask="url(#mask-2)" fill-rule="nonzero">
                <g transform="translate(33.000000, 31.000000)">
                    <path d="M0.424267777,0 C-0.686879001,8.15369948 0.558763199,18.5566869 2.1505003,21.4453701 C4.40697915,25.539756 9.44194876,31 16.0384626,31 C22.6337288,31 27.6681994,25.5400013 29.9251773,21.4453701 C30.9020782,19.6723789 31.7484761,15.0680955 32,9.89137314 C29.0206394,9.68584449 5.29305195,7.81131523 0.424267777,0 Z" id="XMLID_812_" fill="#F3DBC4"></path>
                    <path d="M31.2132392,9.83251052 C31.1977685,9.83128422 31.1840445,9.83030317 31.1683242,9.82907687 C31.1041956,9.82392639 31.035326,9.81828539 30.9662068,9.81264439 C30.9372616,9.81019178 30.9100631,9.80798443 30.8803693,9.80553182 C30.8202331,9.8006266 30.7566035,9.79523086 30.6932235,9.78983512 C30.6485581,9.78615621 30.6051402,9.78247729 30.5587281,9.77830786 C30.5023348,9.77340264 30.4429473,9.76825216 30.3843082,9.76310168 C30.3264178,9.7579512 30.2695255,9.75304598 30.2093893,9.74765024 C30.1552418,9.74274502 30.098599,9.73759454 30.0427048,9.73244406 C29.9748333,9.72631254 29.9072113,9.72018102 29.836595,9.71355897 C29.778455,9.70816323 29.7183189,9.70252223 29.6584322,9.69688123 C29.5868178,9.69025919 29.5154528,9.68339188 29.4413431,9.67627931 C29.3794603,9.67039305 29.3158307,9.66401627 29.2524507,9.65788474 C29.1755961,9.65028165 29.0984921,9.64292383 29.0191423,9.63483022 C28.9542651,9.62845343 28.8878907,9.62158613 28.8212668,9.61496408 C28.7396713,9.60662521 28.6580757,9.59828634 28.5742344,9.58970221 C28.5056143,9.58258964 28.4359961,9.57523181 28.3658788,9.56787398 C28.2812889,9.55904459 28.1962,9.54996994 28.1093643,9.54065002 C28.0370013,9.53280167 27.9633907,9.52495332 27.8895305,9.51685971 C27.8011977,9.50729453 27.7126153,9.4974841 27.6222863,9.4874284 C27.5451823,9.47884427 27.4673296,9.47001487 27.3889779,9.46118548 C27.2993975,9.45112978 27.2090685,9.44082882 27.1174918,9.4302826 C27.0358962,9.42096269 26.9538016,9.41139751 26.8709584,9.40158708 C26.7793818,9.39079559 26.686807,9.38000411 26.5934837,9.36872211 C26.5073966,9.35842115 26.4208105,9.34812019 26.3332263,9.33732871 C26.2401525,9.32604671 26.1463301,9.31451945 26.0517591,9.30274692 C25.96143,9.29146492 25.8708515,9.28018292 25.7790253,9.26865565 C25.6852029,9.25688313 25.5906319,9.24486534 25.4955619,9.2326023 C25.3999928,9.22033925 25.3041741,9.2080762 25.2073574,9.19532264 C25.1132854,9.18305959 25.0184649,9.17055128 24.9231453,9.15779772 C24.8228352,9.14455363 24.7222756,9.13106427 24.6207178,9.11732966 C24.5273944,9.10457609 24.4333225,9.09182253 24.3392506,9.0788237 C24.2339499,9.0643533 24.1283997,9.04963765 24.0216018,9.03467673 C23.9265318,9.02143264 23.8307131,9.00769803 23.7348945,8.99396342 C23.6273481,8.97851198 23.5198017,8.9633058 23.4110076,8.94736384 C23.3164366,8.93362923 23.221117,8.9194041 23.1257974,8.90517896 C23.0120128,8.88825596 22.8984777,8.87157821 22.7834455,8.85416469 C22.6926174,8.84043008 22.6007912,8.82620494 22.5092145,8.81222507 C22.3894412,8.7938305 22.269668,8.77543593 22.148647,8.75630558 C22.0598152,8.74232571 21.9699852,8.72785531 21.8806543,8.71363018 C21.7546428,8.69351878 21.6288809,8.67340739 21.5021208,8.65280547 C21.4190281,8.63931612 21.3351868,8.62509098 21.251595,8.61135637 C21.1173491,8.58903763 20.9831032,8.56696414 20.8478592,8.54415488 C20.7705056,8.53115605 20.6924035,8.51742144 20.6145508,8.50417735 C20.4725696,8.47989652 20.3308378,8.45561568 20.1878585,8.43035381 C20.1174917,8.41809076 20.0466258,8.40509193 19.976259,8.39258363 C19.8240471,8.36535966 19.6718352,8.33838096 19.5186252,8.31042122 C19.4677216,8.3011013 19.4163189,8.29129086 19.3651657,8.28197095 C19.192243,8.25008703 19.0190708,8.21795785 18.8449005,8.18484762 C18.8281821,8.18165923 18.8114638,8.17847084 18.7947454,8.17503718 C17.9248919,8.0092408 17.0438097,7.82897402 16.1619788,7.63276528 L16.1619788,30.9958306 C22.6958612,30.9274028 27.6816739,25.5130226 29.9244287,21.4446343 C30.9013296,19.6716431 31.7477275,15.0673597 31.9992514,9.8903921 C31.8153495,9.87861958 31.5481054,9.85924396 31.2132392,9.83251052 Z" id="XMLID_813_" fill="#EDCEAE"></path>
                </g>
            </g>
        </g>
    </g>
</svg>